<svg xmlns="http://www.w3.org/2000/svg" width="66" height="66" viewBox="0 0 66 66">
  <g id="Group_24" data-name="Group 24" transform="translate(-4085 -3313)">
    <circle id="Ellipse_10" data-name="Ellipse 10" cx="33" cy="33" r="33" transform="translate(4085 3313)" fill="#fff"/>
    <path id="cog" d="M68.005,40.49,63.519,37.9a20.284,20.284,0,0,0,0-7.392l4.486-2.59a1.273,1.273,0,0,0,.579-1.474,26.227,26.227,0,0,0-5.76-9.962,1.267,1.267,0,0,0-1.558-.242L56.78,18.83a19.873,19.873,0,0,0-6.4-3.7V9.963a1.262,1.262,0,0,0-.99-1.232,26.472,26.472,0,0,0-11.5,0,1.262,1.262,0,0,0-.99,1.232v5.181a20.5,20.5,0,0,0-6.4,3.7l-4.475-2.59a1.251,1.251,0,0,0-1.558.242,26.069,26.069,0,0,0-5.76,9.962,1.26,1.26,0,0,0,.579,1.474l4.486,2.59a20.284,20.284,0,0,0,0,7.392L19.282,40.5a1.273,1.273,0,0,0-.579,1.474,26.226,26.226,0,0,0,5.76,9.962,1.267,1.267,0,0,0,1.558.242l4.486-2.59a19.873,19.873,0,0,0,6.4,3.7v5.181A1.262,1.262,0,0,0,37.9,59.7a26.472,26.472,0,0,0,11.5,0,1.262,1.262,0,0,0,.99-1.232V53.285a20.5,20.5,0,0,0,6.4-3.7l4.486,2.59a1.251,1.251,0,0,0,1.558-.242,26.069,26.069,0,0,0,5.76-9.962A1.3,1.3,0,0,0,68.005,40.49ZM43.638,42.628A8.424,8.424,0,1,1,52.062,34.2,8.435,8.435,0,0,1,43.638,42.628Z" transform="translate(4074.356 3311.901)" fill="#424242"/>
  </g>
</svg>
