<svg xmlns="http://www.w3.org/2000/svg" width="65" height="56.868" viewBox="0 0 65 56.868">
  <path id="comment-dots-blue" d="M18.221,54.341A4.062,4.062,0,1,0,22.283,58.4,4.058,4.058,0,0,0,18.221,54.341Zm14.217,0A4.062,4.062,0,1,0,36.5,58.4,4.058,4.058,0,0,0,32.438,54.341Zm14.217,0A4.062,4.062,0,1,0,50.717,58.4,4.058,4.058,0,0,0,46.655,54.341ZM32.438,32C14.489,32-.058,43.818-.058,58.4A23.334,23.334,0,0,0,6.657,74.435a32.212,32.212,0,0,1-5.89,9.292,3.047,3.047,0,0,0,2.221,5.141A30.8,30.8,0,0,0,20.645,82.99a39.2,39.2,0,0,0,11.792,1.815c17.949,0,32.5-11.818,32.5-26.4S50.387,32,32.438,32Zm0,46.713a32.985,32.985,0,0,1-9.952-1.536L19.6,76.263l-2.475,1.752A27.3,27.3,0,0,1,9.83,81.7a31.839,31.839,0,0,0,2.526-5.1L13.7,73.026l-2.615-2.767A17.459,17.459,0,0,1,6.035,58.4c0-11.2,11.843-20.31,26.4-20.31s26.4,9.114,26.4,20.31S47,78.713,32.438,78.713Z" transform="translate(0.066 -32)" fill="#188fde"/>
</svg>
