<svg xmlns="http://www.w3.org/2000/svg" width="50" height="38.103" viewBox="0 0 50 38.103">
  <path id="sign-out-alt" d="M49.308,84.716,32.641,101.383A2.385,2.385,0,0,1,28.573,99.7V90.173H15.08A2.375,2.375,0,0,1,12.7,87.792V78.267a2.375,2.375,0,0,1,2.381-2.381H28.573V66.362a2.386,2.386,0,0,1,4.068-1.687L49.308,81.343A2.4,2.4,0,0,1,49.308,84.716ZM19.049,100.887V96.919a1.194,1.194,0,0,0-1.191-1.191H9.524A3.171,3.171,0,0,1,6.35,92.554V73.505A3.171,3.171,0,0,1,9.524,70.33h8.334a1.194,1.194,0,0,0,1.191-1.191V65.171a1.194,1.194,0,0,0-1.191-1.191H9.524A9.527,9.527,0,0,0,0,73.505V92.554a9.527,9.527,0,0,0,9.524,9.524h8.334A1.194,1.194,0,0,0,19.049,100.887Z" transform="translate(0 -63.979)" fill="#fff"/>
</svg>
