<svg xmlns="http://www.w3.org/2000/svg" width="447.88" height="147.47" viewBox="0 0 447.88 147.47">
  <g id="terrace-logo" transform="translate(0 0.02)">
    <g id="Layer_1" data-name="Layer 1">
      <path id="Path_2" data-name="Path 2" d="M0,48.64H62.11V60.55H38.42v77.09H23.82V60.55H0Z" fill="#fff"/>
      <path id="Path_3" data-name="Path 3" d="M126.09,60.43H91.52V86.54h30.73V98.45H91.52v27.28h34.57v11.91H76.91V48.51h49.18Z" fill="#fff"/>
      <path id="Path_4" data-name="Path 4" d="M174.82,48.64c21.13,0,31.5,12.16,31.5,26.64,0,10.49-5.63,21.77-20.61,25.48l22,36.88h-17.4L169.83,102H158.69v35.6H144.08v-89Zm0,11.91H158.69V90.39h16.13c11.4,0,16.52-6.28,16.52-15.11S186.22,60.55,174.82,60.55Z" fill="#fff"/>
      <path id="Path_5" data-name="Path 5" d="M225.75,79a114.12,114.12,0,0,1,.84-14.1H337.76c-1.65-26.14-19.08-43.36-43.55-43.36-19.08,0-33,8.93-39.41,23.86H227.42c10-27.78,34-45.42,66.79-45.42,41.06,0,69.48,30.07,69.48,73.63s-27.58,73.84-69.27,73.84C254,147.47,225.75,122.79,225.75,79Zm112,8.09h-87.3c.82,23.45,18.45,39,44,39,23.2.02,41.44-14.5,43.31-38.98Z" fill="#fff"/>
      <path id="Path_6" data-name="Path 6" d="M417.18,138.54c-17.8,0-31.5-9.74-31.5-25.49H401.3c.64,7.31,5.76,13.19,15.88,13.19s16-5.5,16-13.06c0-21.51-47.25-7.55-47.25-40.34,0-15.62,12.42-25.35,30.6-25.35,17,0,29.07,9,30.36,24.2H430.75c-.51-6-5.76-11.52-15-11.78-8.46-.25-15,3.84-15,12.42,0,20.11,47.13,7.56,47.13,40.08C447.92,125.73,437,138.54,417.18,138.54Z" fill="#fff"/>
    </g>
  </g>
</svg>
