<svg xmlns="http://www.w3.org/2000/svg" width="141" height="141" viewBox="0 0 141 141">
  <path id="user-circle" d="M70.5,8A70.5,70.5,0,1,0,141,78.5,70.488,70.488,0,0,0,70.5,8Zm0,27.29A25.016,25.016,0,1,1,45.484,60.306,25.017,25.017,0,0,1,70.5,35.29Zm0,97.79a54.475,54.475,0,0,1-41.646-19.388,31.7,31.7,0,0,1,28-17,6.956,6.956,0,0,1,2.018.313A37.638,37.638,0,0,0,70.5,98.968a37.5,37.5,0,0,0,11.627-1.961,6.956,6.956,0,0,1,2.018-.313,31.7,31.7,0,0,1,28,17A54.475,54.475,0,0,1,70.5,133.081Z" transform="translate(0 -8)" fill="#bbb"/>
</svg>
