<svg xmlns="http://www.w3.org/2000/svg" width="50" height="40" viewBox="0 0 50 40">
  <path id="user-plus-blue" d="M48.75,16.25h-5v-5A1.254,1.254,0,0,0,42.5,10H40a1.254,1.254,0,0,0-1.25,1.25v5h-5A1.254,1.254,0,0,0,32.5,17.5V20a1.254,1.254,0,0,0,1.25,1.25h5v5A1.254,1.254,0,0,0,40,27.5h2.5a1.254,1.254,0,0,0,1.25-1.25v-5h5A1.254,1.254,0,0,0,50,20V17.5A1.254,1.254,0,0,0,48.75,16.25ZM17.5,20a10,10,0,1,0-10-10A10,10,0,0,0,17.5,20Zm7,2.5H23.2a13.6,13.6,0,0,1-11.391,0H10.5A10.5,10.5,0,0,0,0,33v3.25A3.751,3.751,0,0,0,3.75,40h27.5A3.751,3.751,0,0,0,35,36.25V33A10.5,10.5,0,0,0,24.5,22.5Z" fill="#188fde"/>
</svg>
