<svg xmlns="http://www.w3.org/2000/svg" width="126" height="126" viewBox="0 0 126 126">
  <g id="user-friends-circle" transform="translate(927 -1271)">
    <circle id="Ellipse_11" data-name="Ellipse 11" cx="63" cy="63" r="63" transform="translate(-927 1271)" fill="#188fde"/>
    <path id="user-friends" d="M19.5,54.75A11.375,11.375,0,1,0,8.125,43.375,11.369,11.369,0,0,0,19.5,54.75ZM27.3,58h-.843a15.7,15.7,0,0,1-13.914,0H11.7A11.7,11.7,0,0,0,0,69.7v2.925A4.876,4.876,0,0,0,4.875,77.5h29.25A4.876,4.876,0,0,0,39,72.625V69.7A11.7,11.7,0,0,0,27.3,58Zm21.45-3.25A9.75,9.75,0,1,0,39,45,9.753,9.753,0,0,0,48.75,54.75ZM53.625,58h-.386a12.807,12.807,0,0,1-8.978,0h-.386a11.28,11.28,0,0,0-5.657,1.564A14.863,14.863,0,0,1,42.25,69.7v3.9c0,.223-.051.437-.061.65H60.125A4.876,4.876,0,0,0,65,69.375,11.369,11.369,0,0,0,53.625,58Z" transform="translate(-897 1280)" fill="#fff"/>
  </g>
</svg>
